<?xml version="1.0" standalone="no"?>
<!DOCTYPE svg PUBLIC "-//W3C//DTD SVG 20010904//EN"
 "http://www.w3.org/TR/2001/REC-SVG-20010904/DTD/svg10.dtd">
<svg version="1.0" xmlns="http://www.w3.org/2000/svg"
 width="500.000000pt" height="500.000000pt" viewBox="0 0 500.000000 500.000000"
 preserveAspectRatio="xMidYMid meet">
<metadata>
Created by potrace 1.14, written by Peter Selinger 2001-2017
</metadata>
<g transform="translate(0.000000,500.000000) scale(0.100000,-0.100000)"
fill="#000000" stroke="none">
<path d="M2390 4836 c-30 -6 -77 -22 -105 -36 -60 -29 -150 -111 -175 -160
-10 -19 -30 -46 -45 -60 l-27 -25 -291 -5 c-278 -5 -294 -6 -327 -27 -52 -32
-74 -77 -80 -158 l-5 -70 -212 -5 -211 -5 -44 -30 c-23 -17 -53 -49 -65 -70
l-23 -40 0 -1925 0 -1925 23 -40 c12 -21 42 -53 65 -70 l44 -30 1587 0 1588 0
39 27 c21 15 50 44 64 65 l25 37 3 1915 c3 2141 9 1966 -69 2036 -22 20 -51
40 -65 45 -14 6 -124 10 -245 10 l-219 0 0 53 c-1 94 -33 153 -102 188 -33 17
-61 19 -278 19 -284 0 -291 2 -343 83 -110 172 -300 248 -507 203z m272 -124
c63 -29 103 -67 171 -161 40 -55 73 -80 123 -91 21 -5 145 -10 275 -10 218 0
239 -2 260 -19 24 -19 24 -21 24 -226 l0 -207 -28 -24 -28 -24 -991 2 -990 3
-19 24 c-17 21 -19 41 -19 225 1 163 3 205 16 221 14 19 30 20 307 25 351 6
347 5 431 135 75 116 180 168 328 161 60 -3 92 -11 140 -34z m-1330 -621 c4
-94 8 -114 31 -154 18 -31 40 -52 70 -66 43 -21 48 -21 1046 -21 963 0 1003 1
1039 19 79 40 102 92 102 231 l0 100 183 0 c212 -1 252 -7 289 -50 l28 -30 0
-1901 0 -1901 -33 -33 c-26 -26 -44 -34 -88 -40 -29 -3 -724 -5 -1544 -3
-1615 3 -1524 0 -1562 57 -17 25 -18 128 -21 1886 -2 1023 0 1878 3 1900 14
96 59 114 286 115 l166 0 5 -109z"/>
<path d="M2446 4359 c-19 -15 -26 -30 -26 -55 0 -47 14 -70 50 -83 83 -28 147
72 85 134 -30 31 -73 32 -109 4z"/>
<path d="M2084 3317 c-71 -62 -169 -150 -218 -196 l-89 -82 -21 19 c-35 33
-131 90 -185 112 -63 25 -65 17 -17 -78 41 -81 117 -184 161 -217 40 -31 85
-32 112 -2 67 76 400 544 392 552 -3 2 -64 -46 -135 -108z"/>
<path d="M2625 3165 c-16 -15 -25 -36 -25 -55 0 -19 9 -40 25 -55 l24 -25 470
0 c258 0 477 3 486 6 23 9 48 62 41 90 -4 13 -16 33 -28 44 -21 20 -33 20
-495 20 l-474 0 -24 -25z"/>
<path d="M2108 2432 c-56 -49 -152 -135 -212 -191 -61 -55 -113 -101 -118
-101 -4 0 -29 16 -55 37 -54 40 -190 109 -200 100 -22 -22 95 -215 175 -289
55 -52 86 -60 120 -30 43 38 408 549 399 558 -3 3 -52 -35 -109 -84z"/>
<path d="M2625 2255 c-16 -15 -25 -36 -25 -55 0 -19 9 -40 25 -55 l24 -25 473
0 c356 1 477 4 489 13 27 20 41 56 34 88 -13 60 -4 59 -523 59 l-473 0 -24
-25z"/>
<path d="M2140 1553 c-36 -32 -131 -117 -212 -190 l-147 -134 -68 47 c-70 49
-158 94 -182 94 -59 0 152 -316 224 -334 27 -7 79 15 88 36 2 7 63 92 134 188
148 200 243 335 243 344 0 15 -19 2 -80 -51z"/>
<path d="M2644 1368 c-22 -10 -44 -47 -44 -73 0 -27 22 -63 47 -74 16 -8 168
-11 483 -11 l459 0 27 24 c21 18 28 32 28 61 0 29 -7 43 -28 61 l-27 24 -462
-1 c-296 0 -470 -4 -483 -11z"/>
</g>
</svg>
